<svg width="18" height="18" viewBox="0 0 18 18" fill="none" xmlns="http://www.w3.org/2000/svg">
<mask id="path-1-outside-1" maskUnits="userSpaceOnUse" x="0" y="0" width="18" height="18" fill="black">
<rect fill="white" width="18" height="18"/>
<path fill-rule="evenodd" clip-rule="evenodd" d="M10.9016 1.0625C10.9016 1.02798 10.8737 1 10.8391 1H7.16086C7.12634 1 7.09836 1.02798 7.09836 1.0625V7.03586C7.09836 7.07038 7.07038 7.09836 7.03586 7.09836H1.0625C1.02798 7.09836 1 7.12634 1 7.16086V10.8391C1 10.8737 1.02798 10.9016 1.0625 10.9016H7.03586C7.07038 10.9016 7.09836 10.9296 7.09836 10.9641V16.9375C7.09836 16.972 7.12634 17 7.16086 17H10.8391C10.8737 17 10.9016 16.972 10.9016 16.9375V10.9641C10.9016 10.9296 10.9296 10.9016 10.9641 10.9016H16.9375C16.972 10.9016 17 10.8737 17 10.8391V7.16086C17 7.12634 16.972 7.09836 16.9375 7.09836H10.9641C10.9296 7.09836 10.9016 7.07038 10.9016 7.03586V1.0625Z"/>
</mask>
<path fill-rule="evenodd" clip-rule="evenodd" d="M10.9016 1.0625C10.9016 1.02798 10.8737 1 10.8391 1H7.16086C7.12634 1 7.09836 1.02798 7.09836 1.0625V7.03586C7.09836 7.07038 7.07038 7.09836 7.03586 7.09836H1.0625C1.02798 7.09836 1 7.12634 1 7.16086V10.8391C1 10.8737 1.02798 10.9016 1.0625 10.9016H7.03586C7.07038 10.9016 7.09836 10.9296 7.09836 10.9641V16.9375C7.09836 16.972 7.12634 17 7.16086 17H10.8391C10.8737 17 10.9016 16.972 10.9016 16.9375V10.9641C10.9016 10.9296 10.9296 10.9016 10.9641 10.9016H16.9375C16.972 10.9016 17 10.8737 17 10.8391V7.16086C17 7.12634 16.972 7.09836 16.9375 7.09836H10.9641C10.9296 7.09836 10.9016 7.07038 10.9016 7.03586V1.0625Z" fill="#E00043"/>
<path d="M7.16086 1.38H10.8391V0.62H7.16086V1.38ZM7.47836 7.03586V1.0625H6.71836V7.03586H7.47836ZM1.0625 7.47836H7.03586V6.71836H1.0625V7.47836ZM1.38 10.8391V7.16086H0.62V10.8391H1.38ZM7.03586 10.5216H1.0625V11.2816H7.03586V10.5216ZM7.47836 16.9375V10.9641H6.71836V16.9375H7.47836ZM10.8391 16.62H7.16086V17.38H10.8391V16.62ZM10.5216 10.9641V16.9375H11.2816V10.9641H10.5216ZM16.9375 10.5216H10.9641V11.2816H16.9375V10.5216ZM16.62 7.16086V10.8391H17.38V7.16086H16.62ZM10.9641 7.47836H16.9375V6.71836H10.9641V7.47836ZM10.5216 1.0625V7.03586H11.2816V1.0625H10.5216ZM10.9641 6.71836C11.1395 6.71836 11.2816 6.86051 11.2816 7.03586H10.5216C10.5216 7.28025 10.7198 7.47836 10.9641 7.47836V6.71836ZM17.38 7.16086C17.38 6.91647 17.1819 6.71836 16.9375 6.71836V7.47836C16.7621 7.47836 16.62 7.33621 16.62 7.16086H17.38ZM16.9375 11.2816C17.1819 11.2816 17.38 11.0835 17.38 10.8391H16.62C16.62 10.6638 16.7621 10.5216 16.9375 10.5216V11.2816ZM11.2816 10.9641C11.2816 11.1395 11.1395 11.2816 10.9641 11.2816V10.5216C10.7198 10.5216 10.5216 10.7198 10.5216 10.9641H11.2816ZM10.8391 17.38C11.0835 17.38 11.2816 17.1819 11.2816 16.9375H10.5216C10.5216 16.7621 10.6638 16.62 10.8391 16.62V17.38ZM6.71836 16.9375C6.71836 17.1819 6.91647 17.38 7.16086 17.38V16.62C7.33621 16.62 7.47836 16.7621 7.47836 16.9375H6.71836ZM7.03586 11.2816C6.86051 11.2816 6.71836 11.1395 6.71836 10.9641H7.47836C7.47836 10.7198 7.28025 10.5216 7.03586 10.5216V11.2816ZM0.62 10.8391C0.62 11.0835 0.818114 11.2816 1.0625 11.2816V10.5216C1.23785 10.5216 1.38 10.6638 1.38 10.8391H0.62ZM1.0625 6.71836C0.818114 6.71836 0.62 6.91647 0.62 7.16086H1.38C1.38 7.33621 1.23785 7.47836 1.0625 7.47836V6.71836ZM6.71836 7.03586C6.71836 6.86051 6.86051 6.71836 7.03586 6.71836V7.47836C7.28025 7.47836 7.47836 7.28025 7.47836 7.03586H6.71836ZM10.8391 1.38C10.6638 1.38 10.5216 1.23785 10.5216 1.0625H11.2816C11.2816 0.818114 11.0835 0.62 10.8391 0.62V1.38ZM7.16086 0.62C6.91647 0.62 6.71836 0.818114 6.71836 1.0625H7.47836C7.47836 1.23785 7.33621 1.38 7.16086 1.38V0.62Z" fill="white" mask="url(#path-1-outside-1)"/>
</svg>
